<svg xmlns="http://www.w3.org/2000/svg" viewBox="0 0 512 512">
  <defs>
    <radialGradient id="brilho" cx="50%" cy="62%" r="46%">
      <stop offset="0%" stop-color="#f7e3a1" stop-opacity=".95"/>
      <stop offset="100%" stop-color="#f3d775" stop-opacity="0"/>
    </radialGradient>
    <linearGradient id="fundo" x1="0" y1="0" x2="1" y2="1">
      <stop offset="0%" stop-color="#7d5ee6"/>
      <stop offset="100%" stop-color="#5b3fb0"/>
    </linearGradient>
  </defs>
  <rect width="512" height="512" rx="116" fill="url(#fundo)"/>
  <circle cx="256" cy="308" r="150" fill="url(#brilho)"/>
  <path d="M150 232c-46-38-100-46-116-16s31 77 85 85" fill="#cbb9f0" opacity=".8"/>
  <path d="M362 232c46-38 100-46 116-16s-31 77-85 85" fill="#cbb9f0" opacity=".8"/>
  <ellipse cx="256" cy="296" rx="104" ry="112" fill="#3a2a63"/>
  <ellipse cx="256" cy="352" rx="72" ry="64" fill="#f3d775"/>
  <circle cx="216" cy="264" r="21" fill="#fff"/>
  <circle cx="296" cy="264" r="21" fill="#fff"/>
  <circle cx="222" cy="269" r="10" fill="#2f2545"/>
  <circle cx="302" cy="269" r="10" fill="#2f2545"/>
  <path d="M212 186c-8-40-32-56-56-64M300 186c8-40 32-56 56-64" stroke="#cbb9f0" stroke-width="19" stroke-linecap="round" fill="none"/>
  <circle cx="150" cy="116" r="24" fill="#f3d775"/>
  <circle cx="362" cy="116" r="24" fill="#f3d775"/>
</svg>
